<svg width="64" height="64" viewBox="0 0 64 64" fill="none" xmlns="http://www.w3.org/2000/svg">
<path d="M54 33.52V30.46L57.84 27.1C58.5479 26.4761 59.0124 25.622 59.1514 24.6888C59.2905 23.7555 59.0952 22.8032 58.6 22L53.88 14C53.5293 13.3925 53.025 12.8879 52.4177 12.5369C51.8104 12.1859 51.1215 12.0007 50.42 12C49.9853 11.9967 49.553 12.0642 49.14 12.2L44.28 13.84C43.4409 13.2824 42.5657 12.7813 41.66 12.34L40.64 7.29999C40.4571 6.3792 39.9562 5.55207 39.2249 4.96339C38.4937 4.37472 37.5786 4.062 36.64 4.07999H27.28C26.3414 4.062 25.4264 4.37472 24.6951 4.96339C23.9638 5.55207 23.4629 6.3792 23.28 7.29999L22.26 12.34C21.3479 12.7812 20.466 13.2823 19.62 13.84L14.86 12.12C14.4426 12.0112 14.0104 11.9707 13.58 12C12.8786 12.0007 12.1896 12.1859 11.5823 12.5369C10.975 12.8879 10.4707 13.3925 10.12 14L5.40002 22C4.93319 22.802 4.75972 23.7413 4.90932 24.6571C5.05891 25.5729 5.52226 26.4082 6.22002 27.02L10 30.48V33.54L6.22002 36.9C5.50255 37.516 5.02653 38.3662 4.87641 39.2999C4.7263 40.2335 4.91181 41.1901 5.40002 42L10.12 50C10.4707 50.6075 10.975 51.112 11.5823 51.4631C12.1896 51.8141 12.8786 51.9993 13.58 52C14.0147 52.0033 14.4471 51.9358 14.86 51.8L19.72 50.16C20.5591 50.7176 21.4344 51.2187 22.34 51.66L23.36 56.7C23.5429 57.6208 24.0438 58.4479 24.7751 59.0366C25.5064 59.6253 26.4214 59.938 27.36 59.92H36.8C37.7386 59.938 38.6537 59.6253 39.3849 59.0366C40.1162 58.4479 40.6171 57.6208 40.8 56.7L41.82 51.66C42.7321 51.2188 43.6141 50.7177 44.46 50.16L49.3 51.8C49.713 51.9358 50.1453 52.0033 50.58 52C51.2815 51.9993 51.9704 51.8141 52.5777 51.4631C53.185 51.112 53.6893 50.6075 54.04 50L58.6 42C59.0668 41.198 59.2403 40.2587 59.0907 39.3429C58.9411 38.427 58.4778 37.5917 57.78 36.98L54 33.52ZM50.42 48L43.56 45.68C41.9541 47.0402 40.1188 48.1035 38.14 48.82L36.72 56H27.28L25.86 48.9C23.8969 48.1631 22.0715 47.1017 20.46 45.76L13.58 48L8.86002 40L14.3 35.2C13.9302 33.1297 13.9302 31.0103 14.3 28.94L8.86002 24L13.58 16L20.44 18.32C22.0459 16.9598 23.8812 15.8965 25.86 15.18L27.28 7.99999H36.72L38.14 15.1C40.1032 15.8368 41.9286 16.8983 43.54 18.24L50.42 16L55.14 24L49.7 28.8C50.0698 30.8703 50.0698 32.9897 49.7 35.06L55.14 40L50.42 48Z" fill="#55FF05"/>
<path d="M32 44C29.6266 44 27.3066 43.2962 25.3332 41.9776C23.3598 40.6591 21.8217 38.7849 20.9135 36.5922C20.0052 34.3995 19.7676 31.9867 20.2306 29.6589C20.6936 27.3311 21.8365 25.193 23.5147 23.5147C25.193 21.8365 27.3311 20.6936 29.6589 20.2306C31.9867 19.7676 34.3995 20.0052 36.5922 20.9135C38.7849 21.8217 40.6591 23.3598 41.9776 25.3332C43.2962 27.3066 44 29.6266 44 32C44.016 33.5803 43.7166 35.148 43.1192 36.6111C42.5219 38.0743 41.6386 39.4035 40.521 40.521C39.4035 41.6386 38.0743 42.5219 36.6111 43.1192C35.148 43.7166 33.5803 44.016 32 44ZM32 24C30.9427 23.9754 29.8914 24.1655 28.9096 24.5588C27.9279 24.9521 27.0361 25.5405 26.2883 26.2883C25.5405 27.0361 24.9521 27.9279 24.5588 28.9096C24.1655 29.8914 23.9754 30.9427 24 32C23.9754 33.0573 24.1655 34.1086 24.5588 35.0904C24.9521 36.0721 25.5405 36.9639 26.2883 37.7117C27.0361 38.4595 27.9279 39.0479 28.9096 39.4412C29.8914 39.8345 30.9427 40.0246 32 40C33.0573 40.0246 34.1086 39.8345 35.0904 39.4412C36.0721 39.0479 36.9639 38.4595 37.7117 37.7117C38.4595 36.9639 39.0479 36.0721 39.4412 35.0904C39.8345 34.1086 40.0246 33.0573 40 32C40.0246 30.9427 39.8345 29.8914 39.4412 28.9096C39.0479 27.9279 38.4595 27.0361 37.7117 26.2883C36.9639 25.5405 36.0721 24.9521 35.0904 24.5588C34.1086 24.1655 33.0573 23.9754 32 24Z" fill="#55FF05"/>
</svg>
