<svg width="45" height="41" viewBox="0 0 45 41" fill="none" xmlns="http://www.w3.org/2000/svg">
<path d="M42.0049 1.34237C43.1556 2.12588 43.948 3.33432 44.2078 4.70197C44.4677 6.06961 44.1737 7.48446 43.3905 8.63539L23.5041 37.8443C23.0005 38.5843 22.3376 39.2022 21.5642 39.6528C20.7907 40.1033 19.9262 40.3751 19.0341 40.4482C18.142 40.5214 17.2448 40.3939 16.4083 40.0753C15.5718 39.7567 14.8172 39.2549 14.1998 38.6068L2.16961 25.9843C1.20913 24.9762 0.688459 23.6278 0.722142 22.2358C0.755824 20.8438 1.3411 19.5222 2.34921 18.5617C3.35733 17.6012 4.7057 17.0805 6.09771 17.1142C7.48971 17.1479 8.81133 17.7332 9.77181 18.7413L17.9582 27.3325L34.7104 2.72789C35.0983 2.15792 35.5948 1.66997 36.1713 1.29187C36.7479 0.913778 37.3933 0.652956 38.0707 0.524297C38.748 0.395639 39.4441 0.401664 40.1191 0.54203C40.7942 0.682396 41.4349 0.954353 42.0049 1.34237V1.34237Z" fill="#CAF6FF"/>
</svg>
